<?xml version="1.0" encoding="UTF-8" standalone="no"?>
<!-- Generator: Adobe Illustrator 13.0.0, SVG Export Plug-In . SVG Version: 6.00 Build 14948)  -->

<svg
   xmlns:dc="http://purl.org/dc/elements/1.1/"
   xmlns:cc="http://creativecommons.org/ns#"
   xmlns:rdf="http://www.w3.org/1999/02/22-rdf-syntax-ns#"
   xmlns:svg="http://www.w3.org/2000/svg"
   xmlns="http://www.w3.org/2000/svg"
   xmlns:sodipodi="http://sodipodi.sourceforge.net/DTD/sodipodi-0.dtd"
   xmlns:inkscape="http://www.inkscape.org/namespaces/inkscape"
   version="1.0"
   id="Ebene_1"
   x="0px"
   y="0px"
   width="133.20262"
   height="129.66861"
   sodipodi:docname="servo-body.svg"
   inkscape:version="0.92.3 (2405546, 2018-03-11)">
  <metadata
     id="metadata36">
    <rdf:RDF>
      <cc:Work
         rdf:about="">
        <dc:format>image/svg+xml</dc:format>
        <dc:type
           rdf:resource="http://purl.org/dc/dcmitype/StillImage" />
        <dc:title></dc:title>
      </cc:Work>
    </rdf:RDF>
  </metadata>
  <defs
     id="defs34" />
  <sodipodi:namedview
     pagecolor="#ffffff"
     bordercolor="#666666"
     borderopacity="1"
     objecttolerance="10"
     gridtolerance="10"
     guidetolerance="10"
     inkscape:pageopacity="0"
     inkscape:pageshadow="2"
     inkscape:window-width="2560"
     inkscape:window-height="1357"
     id="namedview32"
     showgrid="false"
     inkscape:zoom="13.303143"
     inkscape:cx="66.601308"
     inkscape:cy="64.834302"
     inkscape:window-x="0"
     inkscape:window-y="44"
     inkscape:window-maximized="1"
     inkscape:current-layer="Ebene_1"
     fit-margin-top="0"
     fit-margin-left="0"
     fit-margin-right="0"
     fit-margin-bottom="0" />
  <g
     id="icon"
     transform="matrix(1.0833885,0,0,1.0833885,-4.0735408,30.983828)">
    <rect
       id="one"
       x="97.231003"
       y="85.079002"
       width="2.4100001"
       height="5.9790001"
       style="fill:#b3b3b3" />
    <polyline
       id="tree"
       points="119.611,85.049 119.611,91.089 117.111,91.089 117.111,85.049  "
       style="fill:#b3b3b3" />
    <rect
       id="two"
       x="107.193"
       y="85.049004"
       width="2.418"
       height="6.04"
       style="fill:#b3b3b3" />
    <path
       d="m 104.657,31.191 c 0,0 13.079,-1.868 13.079,13.02 0,14.273 -19.286,20.434 -19.286,27.908 0,7.474 0,13.079 0,13.079"
       id="path7"
       style="fill:none;stroke:#000000;stroke-width:3"
       inkscape:connector-curvature="0" />
    <path
       d="m 104.767,28.37 c 5.604,0 16.705,1.628 16.705,15.9 0,14.273 -13.079,20.539 -13.079,28.013 0,7.475 0,12.915 0,12.915"
       id="path9"
       style="fill:none;stroke:#ff0000;stroke-width:3"
       inkscape:connector-curvature="0" />
    <path
       d="m 104.657,25.586 c 7.474,0 20.553,4.412 20.553,18.685 0,14.273 -6.885,20.607 -6.885,28.082 0,7.475 0,12.846 0,12.846"
       id="path11"
       style="fill:none;stroke:#ffff00;stroke-width:3"
       inkscape:connector-curvature="0" />
    <polygon
       points="20.576,49.876 20.576,14.375 3.76,14.375 3.76,12.507 20.576,12.507 20.576,-6.178 100.92,-6.178 100.92,12.507 117.736,12.507 117.736,14.375 100.92,14.375 100.92,49.876 "
       id="polygon13"
       style="fill:#333333" />
    <polygon
       points="20.576,14.375 20.576,49.876 14.97,44.271 14.97,14.375 "
       id="polygon15" />
    <polygon
       points="14.97,6.901 20.576,12.507 3.76,12.507 3.76,3.164 14.97,3.164 "
       id="polygon17"
       style="fill:#999999" />
    <polygon
       points="14.97,-11.783 14.97,-22.994 20.576,-28.599 100.92,-28.599 106.525,-22.994 106.525,-11.783 100.92,-6.178 20.576,-6.178 "
       id="polygon19"
       style="fill:#999999" />
    <polygon
       points="100.92,14.376 100.92,49.876 106.525,44.271 106.525,14.376 "
       id="polygon21"
       style="fill:#666666" />
    <polygon
       points="106.525,6.901 100.92,12.507 117.737,12.507 117.737,3.164 106.525,3.164 "
       id="polygon23"
       style="fill:#999999" />
    <polygon
       points="20.576,-6.178 20.576,12.507 14.97,6.901 14.97,-11.783 "
       id="polygon25" />
    <polygon
       points="100.92,-6.178 100.92,12.507 106.525,6.901 106.525,-11.783 "
       id="polygon27"
       style="fill:#666666" />
    <g
       id="g37">
      <ellipse
         cx="39.296001"
         cy="-22.18"
         rx="8.0019999"
         ry="4.4650002"
         id="ellipse39"
         style="fill:#999999" />
      <g
         id="g41">
        <path
           d="m 31.438,-22.223 c 0.794,1.919 3.985,3.356 7.807,3.356 3.822,0 7.116,-1.436 7.912,-3.356 h -0.008 c 0.121,0.296 0.188,0.604 0.188,0.92 0,2.368 -3.582,4.288 -8.002,4.288 -4.42,0 -8.002,-1.92 -8.002,-4.288 0,-0.316 -10e-4,-0.642 0.12,-0.938 z"
           id="path43"
           style="fill:#666666"
           inkscape:connector-curvature="0" />
      </g>
    </g>
    <g
       id="g45">
      <path
         d="m 59.739,-20.018 v 1.136 h 3.406 v 1.135 h 1.135 v 1.135 h -1.135 v 1.136 h -5.677 v -1.136 h 4.541 v -1.135 h -3.406 v -1.135 h -1.135 v -1.136 h 1.135 v -1.135 h 5.677 v 1.135 z"
         id="path47"
         style="fill:#ffcc33"
         inkscape:connector-curvature="0" />
      <path
         d="m 72.227,-21.153 v 1.135 h -4.541 v 1.136 h 3.406 v 1.135 h -3.406 v 1.135 h 4.541 v 1.136 h -6.812 v -5.677 z"
         id="path49"
         style="fill:#ffcc33"
         inkscape:connector-curvature="0" />
      <path
         d="m 79.04,-20.018 h 1.136 v 2.271 H 79.04 v 1.135 h 1.136 v 1.136 H 76.77 v -1.136 h -1.136 v 1.136 h -2.271 v -5.677 h 5.677 z m -1.136,0 h -2.271 v 2.271 h 2.271 z"
         id="path51"
         style="fill:#ffcc33"
         inkscape:connector-curvature="0" />
      <path
         d="m 88.123,-21.153 v 2.271 h -1.135 v 2.27 h -1.137 v 1.136 H 83.58 v -1.136 h -1.135 v -2.27 H 81.31 v -2.271 h 2.271 v 2.271 h 2.271 v -2.271 z"
         id="path53"
         style="fill:#ffcc33"
         inkscape:connector-curvature="0" />
      <path
         d="m 90.393,-15.476 v -1.136 h -1.135 v -3.406 h 1.135 v -1.135 h 4.542 v 1.135 h 1.135 v 3.406 h -1.135 v 1.136 z m 3.407,-1.136 v -3.406 h -2.271 v 3.406 z"
         id="path55"
         style="fill:#ffcc33"
         inkscape:connector-curvature="0" />
    </g>
  </g>
</svg>
